<?xml version="1.0" standalone="no"?>
<!DOCTYPE svg PUBLIC "-//W3C//DTD SVG 20010904//EN"
 "http://www.w3.org/TR/2001/REC-SVG-20010904/DTD/svg10.dtd">
<svg version="1.0" xmlns="http://www.w3.org/2000/svg"
 width="32.000000pt" height="32.000000pt" viewBox="0 0 32.000000 32.000000"
 preserveAspectRatio="xMidYMid meet">

<g transform="translate(0.000000,32.000000) scale(0.100000,-0.100000)"
fill="#000000" stroke="none">
<path d="M60 80 c0 -33 4 -60 10 -60 6 0 10 17 10 38 l1 37 20 -37 c30 -59 49
-50 49 22 0 33 -4 60 -10 60 -5 0 -10 -21 -10 -47 l-1 -48 -25 48 c-13 26 -29
47 -34 47 -6 0 -10 -27 -10 -60z"/>
<path d="M182 128 c-16 -16 -16 -80 0 -96 28 -28 88 -2 74 33 -6 17 -56 21
-56 5 0 -5 9 -10 20 -10 11 0 20 -4 20 -10 0 -5 -11 -10 -25 -10 -22 0 -25 4
-25 40 0 36 3 40 24 40 13 0 26 -6 29 -12 2 -7 8 -10 12 -6 12 12 -15 38 -39
38 -12 0 -27 -5 -34 -12z"/>
</g>
</svg>
